<?xml version="1.0" encoding="utf-8"?>
<!-- Generator: Adobe Illustrator 24.1.2, SVG Export Plug-In . SVG Version: 6.00 Build 0)  -->
<svg version="1.1" id="Capa_1" xmlns="http://www.w3.org/2000/svg" xmlns:xlink="http://www.w3.org/1999/xlink" x="0px" y="0px"
	 viewBox="0 0 24 24" style="enable-background:new 0 0 24 24;" xml:space="preserve">
<style type="text/css">
	.st0{fill:#FFFFFF;}
	.st1{opacity:0.48;fill:#FFFFFF;enable-background:new    ;}
</style>
<g transform="translate(2 4)">
	<path class="st0" d="M18.4,4.6l-1.2,1.8c1.2,2.4,1.1,5.3-0.2,7.6H3.1c-1.8-3.1-1.3-6.9,1.1-9.5s6.2-3.2,9.4-1.7l1.9-1.2
		c-3.9-2.5-8.9-2-12.3,1.2S-0.9,11,1.3,15c0.4,0.6,1,1,1.7,1h13.9c0.7,0,1.4-0.4,1.7-1C20.5,11.7,20.4,7.7,18.4,4.6L18.4,4.6z"/>
	<path class="st1" d="M8.6,11.4C9,11.8,9.5,12,10,12s1-0.2,1.4-0.6l5.7-8.5L8.6,8.6C8.2,9,8,9.5,8,10S8.2,11,8.6,11.4z"/>
</g>
</svg>
