<svg xmlns="http://www.w3.org/2000/svg" viewBox="0 0 46.16 40.48"><g id="Capa_2" data-name="Capa 2"><g id="obj"><path class="cls-1" d="M39,0,37,7.71H0L6.29,31.22H33.13L39,9.16h0l0-.08.36-1.37h0l1.42-5.4h5.33V0ZM31.36,28.91H8.06L3,10H36.42Z"/><path class="cls-1" d="M13.29,33.71a3.39,3.39,0,1,0,3.39,3.39A3.4,3.4,0,0,0,13.29,33.71Zm0,4.46a1.08,1.08,0,1,1,1.08-1.07A1.08,1.08,0,0,1,13.29,38.17Z"/><path class="cls-1" d="M26.14,33.71a3.39,3.39,0,1,0,3.39,3.39A3.4,3.4,0,0,0,26.14,33.71Zm0,4.46a1.08,1.08,0,1,1,1.08-1.07A1.08,1.08,0,0,1,26.14,38.17Z"/></g></g></svg>