<svg xmlns="http://www.w3.org/2000/svg" viewBox="0 0 55.41 55.41"><defs><style>.cls-1{fill:#aaa;}</style></defs><g id="Capa_2" data-name="Capa 2"><g id="obj"><path class="cls-1" d="M54.26,55.41a1.14,1.14,0,0,1-.82-.34L41.93,43.57a1.16,1.16,0,0,1,0-1.64,1.15,1.15,0,0,1,1.63,0L55.07,53.44a1.15,1.15,0,0,1,0,1.63A1.12,1.12,0,0,1,54.26,55.41Z"/><path class="cls-1" d="M25.49,51A25.5,25.5,0,1,1,51,25.49,25.53,25.53,0,0,1,25.49,51Zm0-48.68A23.19,23.19,0,1,0,48.68,25.49,23.21,23.21,0,0,0,25.49,2.31Z"/></g></g></svg>