<?xml version="1.0" encoding="utf-8"?>
<!-- Generator: Adobe Illustrator 24.1.2, SVG Export Plug-In . SVG Version: 6.00 Build 0)  -->
<svg version="1.1" id="Capa_1" xmlns="http://www.w3.org/2000/svg" xmlns:xlink="http://www.w3.org/1999/xlink" x="0px" y="0px"
	 viewBox="0 0 24 24" style="enable-background:new 0 0 24 24;" xml:space="preserve">
<style type="text/css">
	.st0{fill:#FFFFFF;}
	.st1{opacity:0.48;fill:#FFFFFF;enable-background:new    ;}
</style>
<g>
	<path class="st0" d="M16.8,2.8h-1.1V1.9c0-0.5-0.4-0.9-0.9-0.9s-0.9,0.4-0.9,0.9v0.9H6.5V1.9C6.5,1.4,6.1,1,5.6,1
		C5.1,1,4.7,1.4,4.7,1.9v0.9H3.5C2.1,2.8,1,4,1,5.4v10.3c0,1.5,1.2,2.8,2.7,2.8h4.6c0.5,0,0.9-0.4,0.9-0.9s-0.4-0.9-0.9-0.9H3.7
		c-0.5,0-0.9-0.4-0.9-0.9V8.3h14.7c0,0.5,0.4,0.9,0.9,0.9s0.9-0.4,0.9-0.9v-3C19.3,4,18.2,2.8,16.8,2.8z"/>
	<path class="st1" d="M17,11.1c-3.3,0-6,2.7-6,6s2.7,6,6,6s6-2.7,6-6S20.3,11.1,17,11.1z M19.8,16l-3,3.4c-0.2,0.2-0.4,0.3-0.7,0.3
		c0,0,0,0,0,0c-0.2,0-0.5-0.1-0.6-0.3l-1.6-1.6c-0.4-0.4-0.4-0.9,0-1.3c0.4-0.4,0.9-0.4,1.3,0l0.9,0.9l2.3-2.7
		c0.3-0.4,0.9-0.4,1.3-0.1C20.1,15.1,20.1,15.7,19.8,16z"/>
</g>
</svg>
