<?xml version="1.0" encoding="utf-8"?>
<!-- Generator: Adobe Illustrator 24.1.2, SVG Export Plug-In . SVG Version: 6.00 Build 0)  -->
<svg version="1.1" id="Capa_1" xmlns="http://www.w3.org/2000/svg" xmlns:xlink="http://www.w3.org/1999/xlink" x="0px" y="0px"
	 viewBox="0 0 24 24" style="enable-background:new 0 0 24 24;" xml:space="preserve">
<style type="text/css">
	.st0{opacity:0.48;fill:#FFFFFF;enable-background:new    ;}
	.st1{fill:#FFFFFF;}
</style>
<g transform="translate(2 2)">
	<path class="st0" d="M9.6,1.3c1.7,0,3.1,1.1,3.5,2.6h-7C6.5,2.4,7.9,1.3,9.6,1.3z M14.2,0c0.9,0,1.7,0.7,1.7,1.7
		c0,0.9-0.7,1.7-1.7,1.7s-1.7-0.7-1.7-1.7C12.6,0.7,13.3,0,14.2,0z"/>
	<path class="st1" d="M7.6,15.9c0.9,0,1.7,0.7,1.7,1.7c0,0.9-0.7,1.7-1.7,1.7S6,18.4,6,17.5C6,16.6,6.7,15.9,7.6,15.9z M14.2,15.9
		c0.9,0,1.7,0.7,1.7,1.7c0,0.9-0.7,1.7-1.7,1.7c-0.9,0-1.7-0.7-1.7-1.7C12.6,16.6,13.3,15.9,14.2,15.9z M3.6,2.6
		c0.5,0,0.9,0.3,1,0.8l0.2,1.2h13.3c0.6,0,1.1,0.6,1,1.2l-2,8.6c-0.1,0.4-0.5,0.8-1,0.8H5.6c-0.5,0-0.9-0.3-1-0.8L2.8,4.6H1
		c-0.3,0-0.6-0.1-0.7-0.3C0.1,4.1,0,3.9,0,3.6S0.1,3.2,0.2,3C0.4,2.8,0.7,2.6,1,2.6H3.6z"/>
</g>
</svg>
