<?xml version="1.0" encoding="utf-8"?>
<!-- Generator: Adobe Illustrator 24.1.2, SVG Export Plug-In . SVG Version: 6.00 Build 0)  -->
<svg version="1.1" id="Capa_1" xmlns="http://www.w3.org/2000/svg" xmlns:xlink="http://www.w3.org/1999/xlink" x="0px" y="0px"
	 viewBox="0 0 24 24" style="enable-background:new 0 0 24 24;" xml:space="preserve">
<style type="text/css">
	.st0{fill:#FFFFFF;}
	.st1{opacity:0.48;fill:#FFFFFF;enable-background:new    ;}
</style>
<g transform="translate(.5 2.5)">
	<path class="st0" d="M8.3,0.3C3.6,0.3,0,3.5,0,7s3.1,5.5,3.1,5.5l-0.5,1.9c-0.1,0.3,0.2,0.5,0.4,0.3l2.3-1.3c1,0.3,3.1,0.4,3.4,0.4
		c-0.1-0.5-0.2-1-0.2-1.5c0-2.7,2.3-6.5,7.6-6.5c0.1,0,0.2,0,0.4,0C15.7,2.6,12.2,0.3,8.3,0.3z"/>
	<path class="st1" d="M23,12c0-3.1-3.6-5.3-7-5.3c-4.8,0-6.8,3.4-6.8,5.7c0,2.3,2,5.7,6.8,5.7c1.1,0,2-0.2,2.8-0.4l1.8,1.1
		c0.1,0.1,0.3,0,0.3-0.2l-0.4-1.8C22.2,15.7,23,13.8,23,12z"/>
</g>
</svg>
