<?xml version="1.0" encoding="utf-8"?>
<!-- Generator: Adobe Illustrator 24.1.2, SVG Export Plug-In . SVG Version: 6.00 Build 0)  -->
<svg version="1.1" id="Capa_1" xmlns="http://www.w3.org/2000/svg" xmlns:xlink="http://www.w3.org/1999/xlink" x="0px" y="0px"
	 viewBox="0 0 24 24" style="enable-background:new 0 0 24 24;" xml:space="preserve">
<style type="text/css">
	.st0{opacity:0.48;fill:#FFFFFF;enable-background:new    ;}
	.st1{fill:#FFFFFF;}
</style>
<path class="st0" d="M20.2,1c1,0,1.8,0.8,1.8,1.8s-0.8,1.8-1.8,1.8c-0.3,0-0.6-0.1-0.9-0.2l-3,3.5c0.1,0.3,0.2,0.5,0.2,0.9
	c0,1-0.8,1.8-1.8,1.8c-1,0-1.8-0.8-1.8-1.7l-2.2-0.8c-0.3,0.4-0.8,0.7-1.4,0.7C9,8.8,8.6,8.7,8.4,8.5L5.5,11
	c0.1,0.2,0.1,0.4,0.1,0.5c0,1-0.8,1.8-1.8,1.8s-1.8-0.8-1.8-1.8s0.8-1.8,1.8-1.8c0.3,0,0.6,0.1,0.9,0.2l2.9-2.4
	C7.5,7.3,7.4,7.1,7.4,6.9c0-1,0.8-1.8,1.8-1.8c1,0,1.8,0.8,1.8,1.7l2.2,0.8c0.3-0.4,0.8-0.7,1.4-0.7c0.2,0,0.4,0,0.6,0.1l3.2-3.6
	c-0.1-0.2-0.1-0.4-0.1-0.6C18.4,1.8,19.2,1,20.2,1z"/>
<path class="st1" d="M21.2,9.6c0.5,0,0.9,0.4,0.9,0.9v10.8c0,0.3-0.2,0.5-0.5,0.5h-2.7c-0.3,0-0.5-0.2-0.5-0.5V10.5
	c0-0.5,0.4-0.9,0.9-0.9L21.2,9.6z M15.7,16c0.5,0,0.9,0.4,0.9,0.9v4.3c0,0.3-0.2,0.5-0.5,0.5h-2.7c-0.3,0-0.5-0.2-0.5-0.5V17
	c0-0.5,0.4-0.9,0.9-0.9H15.7z M10.2,14.2c0.5,0,0.9,0.4,0.9,0.9v6.2c0,0.3-0.2,0.5-0.5,0.5H7.9c-0.3,0-0.5-0.2-0.5-0.5v-6.2
	c0-0.5,0.4-0.9,0.9-0.9L10.2,14.2z M4.7,18.9c0.5,0,0.9,0.4,0.9,0.9v1.5c0,0.3-0.2,0.5-0.5,0.5H2.4c-0.3,0-0.5-0.2-0.5-0.5v-1.5
	c0-0.5,0.4-0.9,0.9-0.9H4.7z"/>
</svg>
