<?xml version="1.0" encoding="utf-8"?>
<!-- Generator: Adobe Illustrator 24.1.2, SVG Export Plug-In . SVG Version: 6.00 Build 0)  -->
<svg version="1.1" id="Capa_1" xmlns="http://www.w3.org/2000/svg" xmlns:xlink="http://www.w3.org/1999/xlink" x="0px" y="0px"
	 viewBox="0 0 24 24" style="enable-background:new 0 0 24 24;" xml:space="preserve">
<style type="text/css">
	.st0{fill:#FFFFFF;}
	.st1{opacity:0.48;fill:#FFFFFF;enable-background:new    ;}
</style>
<g transform="translate(1.5 1.5)">
	<path class="st0" d="M18.9,3.2H2.1C0.9,3.2,0,4.1,0,5.3v13c0,1.2,0.9,2.1,2.1,2.1h16.8c1.2,0,2.1-0.9,2.1-2.1v-13
		C21,4.1,20.1,3.2,18.9,3.2z M18.9,19.6H2.1c-0.8,0-1.4-0.6-1.4-1.4V7.7h19.6v10.5C20.3,19,19.7,19.6,18.9,19.6z M16.4,2.5V0.7
		c0-0.4-0.3-0.7-0.7-0.7S15,0.3,15,0.7v1.8H16.4z M5.9,2.5V0.7C5.9,0.3,5.6,0,5.2,0S4.5,0.3,4.5,0.7v1.8H5.9z"/>
	<path class="st1" d="M6,14.4c0.6,0,1,0.4,1,1V17c0,0.6-0.4,1-1,1H3.8c-0.6,0-1-0.4-1-1v-1.6c0-0.6,0.4-1,1-1L6,14.4z M11.6,14.4
		c0.6,0,1,0.4,1,1V17c0,0.6-0.4,1-1,1H9.4c-0.6,0-1-0.4-1-1v-1.6c0-0.6,0.4-1,1-1L11.6,14.4z M6,9.4c0.6,0,1,0.4,1,1V12
		c0,0.6-0.4,1-1,1H3.8c-0.6,0-1-0.4-1-1v-1.6c0-0.6,0.4-1,1-1H6z M11.6,9.4c0.6,0,1,0.4,1,1V12c0,0.6-0.4,1-1,1H9.4
		c-0.6,0-1-0.4-1-1v-1.6c0-0.6,0.4-1,1-1H11.6z M17.2,9.4c0.6,0,1,0.4,1,1V12c0,0.6-0.4,1-1,1H15c-0.6,0-1-0.4-1-1v-1.6
		c0-0.6,0.4-1,1-1H17.2z"/>
</g>
</svg>
